<?xml version="1.0" encoding="utf-8"?>
<!-- Generator: Adobe Illustrator 15.1.0, SVG Export Plug-In . SVG Version: 6.00 Build 0)  -->
<!DOCTYPE svg PUBLIC "-//W3C//DTD SVG 1.1//EN" "http://www.w3.org/Graphics/SVG/1.1/DTD/svg11.dtd">
<svg version="1.1" id="Vrstva_1" xmlns="http://www.w3.org/2000/svg" xmlns:xlink="http://www.w3.org/1999/xlink" x="0px" y="0px"
	 width="13.714px" height="16px" viewBox="0 0 13.714 16" enable-background="new 0 0 13.714 16" xml:space="preserve">
<g>
	<path d="M13.714,4.857v10.285c0,0.474-0.385,0.857-0.856,0.857H0.857C0.383,16,0,15.616,0,15.143V0.857C0,0.384,0.383,0,0.857,0
		h7.999c0.474,0,1.137,0.276,1.466,0.607l2.785,2.785C13.436,3.724,13.714,4.384,13.714,4.857z M12.572,5.714H8.856
		C8.384,5.714,8,5.33,8,4.857V1.143H1.143v13.715h11.429V5.714z M4.687,6.804l0.455,0.339C5.267,7.241,5.294,7.42,5.197,7.545
		L3.571,9.714l1.626,2.17c0.098,0.125,0.07,0.304-0.055,0.402l-0.455,0.339c-0.125,0.099-0.304,0.071-0.401-0.054L2.269,9.884
		c-0.073-0.097-0.073-0.242,0-0.339l2.017-2.688C4.383,6.732,4.562,6.705,4.687,6.804z M5.68,13.33l1.229-7.418
		c0.028-0.162,0.181-0.26,0.333-0.233l0.563,0.088c0.161,0.028,0.258,0.179,0.229,0.332l-1.229,7.418
		c-0.028,0.161-0.181,0.259-0.333,0.232L5.91,13.662C5.749,13.634,5.652,13.482,5.68,13.33z M11.448,9.884L9.43,12.571
		c-0.101,0.125-0.278,0.152-0.403,0.054l-0.455-0.339c-0.125-0.099-0.152-0.277-0.055-0.402l1.624-2.17L8.517,7.545
		C8.419,7.42,8.447,7.241,8.572,7.143l0.455-0.339C9.152,6.705,9.33,6.732,9.43,6.857l2.018,2.688
		C11.517,9.642,11.517,9.787,11.448,9.884z M9.142,4.571H12.5c-0.053-0.151-0.133-0.304-0.195-0.366L9.509,1.412
		C9.447,1.349,9.294,1.268,9.142,1.214V4.571z"/>
</g>
</svg>
