<?xml version="1.0" encoding="utf-8"?>
<!-- Generator: Adobe Illustrator 15.1.0, SVG Export Plug-In . SVG Version: 6.00 Build 0)  -->
<!DOCTYPE svg PUBLIC "-//W3C//DTD SVG 1.1//EN" "http://www.w3.org/Graphics/SVG/1.1/DTD/svg11.dtd">
<svg version="1.1" id="Vrstva_1" xmlns="http://www.w3.org/2000/svg" xmlns:xlink="http://www.w3.org/1999/xlink" x="0px" y="0px"
	 width="13.714px" height="16px" viewBox="0 0 13.714 16" enable-background="new 0 0 13.714 16" xml:space="preserve">
<g>
	<path d="M13.714,4.857v10.286c0,0.473-0.385,0.857-0.857,0.857h-12C0.383,16,0,15.615,0,15.143V0.857C0,0.384,0.383,0,0.857,0h8
		c0.473,0,1.134,0.277,1.464,0.607l2.786,2.785C13.436,3.723,13.714,4.384,13.714,4.857z M12.571,5.714H8.857
		C8.383,5.714,8,5.33,8,4.857V1.143H1.142v13.714h11.429V5.714z M2.286,7.429c0-0.947,0.768-1.714,1.714-1.714
		s1.715,0.768,1.715,1.714c0,0.946-0.769,1.714-1.715,1.714S2.286,8.375,2.286,7.429z M11.428,13.715H2.286V12L4,10.286l1.144,1.143
		L8.571,8l2.857,2.857V13.715z M9.143,4.571H12.5c-0.054-0.152-0.134-0.304-0.197-0.366L9.508,1.411
		C9.446,1.348,9.293,1.268,9.143,1.214V4.571z"/>
</g>
</svg>
