<?xml version="1.0" encoding="utf-8"?>
<!-- Generator: Adobe Illustrator 15.1.0, SVG Export Plug-In . SVG Version: 6.00 Build 0)  -->
<!DOCTYPE svg PUBLIC "-//W3C//DTD SVG 1.1//EN" "http://www.w3.org/Graphics/SVG/1.1/DTD/svg11.dtd">
<svg version="1.1" id="Vrstva_1" xmlns="http://www.w3.org/2000/svg" xmlns:xlink="http://www.w3.org/1999/xlink" x="0px" y="0px"
	 width="13.714px" height="16px" viewBox="0 0 13.714 16" enable-background="new 0 0 13.714 16" xml:space="preserve">
<g>
	<path d="M13.714,4.857v10.285c0,0.474-0.385,0.857-0.856,0.857H0.857C0.383,16,0,15.616,0,15.143V0.857C0,0.384,0.383,0,0.857,0
		h7.999c0.474,0,1.137,0.276,1.466,0.607l2.785,2.785C13.436,3.724,13.714,4.384,13.714,4.857z M12.572,5.714H8.856
		C8.384,5.714,8,5.33,8,4.857V1.143H6.857v1.144H5.714V1.143H1.143v13.715h11.429V5.714z M7.929,11.537C7.971,11.688,8,11.839,8,12
		c0,0.991-0.966,1.714-2.285,1.714c-1.32,0-2.286-0.723-2.286-1.714c0-0.161,0.027-0.313,0.071-0.463c0,0,0.188-0.554,1.071-3.537
		V6.857h1.144V8h0.705C6.68,8,6.902,8.17,6.971,8.42C7.732,10.982,7.929,11.537,7.929,11.537z M5.714,2.286H4.571v1.143h1.144V2.286
		z M5.714,4.571H4.571v1.143h1.144V4.571z M6.857,12c0-0.313-0.51-0.571-1.143-0.571c-0.634,0-1.144,0.259-1.144,0.571
		s0.51,0.571,1.144,0.571C6.347,12.571,6.857,12.313,6.857,12z M6.857,3.429H5.714v1.143h1.143V3.429z M6.857,5.714H5.714v1.144
		h1.143V5.714z M9.142,4.571H12.5c-0.053-0.151-0.133-0.304-0.195-0.366L9.509,1.412C9.447,1.349,9.294,1.268,9.142,1.214V4.571z"/>
</g>
</svg>
