<?xml version="1.0" encoding="utf-8"?>
<!-- Generator: Adobe Illustrator 15.1.0, SVG Export Plug-In . SVG Version: 6.00 Build 0)  -->
<!DOCTYPE svg PUBLIC "-//W3C//DTD SVG 1.1//EN" "http://www.w3.org/Graphics/SVG/1.1/DTD/svg11.dtd">
<svg version="1.1" id="Vrstva_1" xmlns="http://www.w3.org/2000/svg" xmlns:xlink="http://www.w3.org/1999/xlink" x="0px" y="0px"
	 width="13.714px" height="16px" viewBox="0 0 13.714 16" enable-background="new 0 0 13.714 16" xml:space="preserve">
<g>
	<path d="M13.715,4.857v10.285c0,0.474-0.385,0.857-0.859,0.857H0.857C0.383,16,0,15.616,0,15.143V0.857C0,0.384,0.383,0,0.857,0h8
		c0.474,0,1.136,0.276,1.466,0.607l2.783,2.785C13.436,3.724,13.715,4.384,13.715,4.857z M12.573,5.714H8.856
		C8.384,5.714,8,5.33,8,4.857V1.143H1.142v13.715h11.431V5.714z M5.715,7.857v4.856c0,0.116-0.072,0.224-0.181,0.269
		C5.499,12.991,5.464,13,5.43,13c-0.073,0-0.146-0.026-0.208-0.08l-1.48-1.491h-1.17c-0.16,0-0.285-0.125-0.285-0.286V9.429
		c0-0.161,0.125-0.286,0.285-0.286h1.17l1.48-1.491c0.091-0.08,0.208-0.106,0.313-0.063C5.643,7.634,5.715,7.741,5.715,7.857z
		 M7.795,12.241c0.5-0.536,0.776-1.224,0.776-1.955c0-0.732-0.276-1.42-0.776-1.956c-0.216-0.231-0.58-0.242-0.813-0.026
		c-0.223,0.214-0.24,0.58-0.018,0.813c0.295,0.321,0.461,0.733,0.461,1.17c0,0.438-0.166,0.848-0.461,1.169
		c-0.223,0.232-0.205,0.599,0.018,0.813c0.114,0.099,0.256,0.152,0.392,0.152C7.527,12.42,7.68,12.357,7.795,12.241z M9.706,13.526
		c0.742-0.909,1.15-2.063,1.15-3.24c0-1.179-0.408-2.332-1.15-3.241c-0.195-0.25-0.563-0.286-0.804-0.09
		c-0.25,0.206-0.284,0.563-0.079,0.812c0.579,0.715,0.891,1.59,0.891,2.519c0,0.928-0.313,1.802-0.891,2.518
		c-0.205,0.25-0.171,0.608,0.079,0.804c0.108,0.089,0.233,0.134,0.359,0.134C9.43,13.741,9.588,13.67,9.706,13.526z M9.143,4.571
		H12.5c-0.055-0.151-0.133-0.304-0.195-0.366L9.51,1.412C9.448,1.349,9.293,1.268,9.143,1.214V4.571z"/>
</g>
</svg>
