<?xml version="1.0" encoding="utf-8"?>
<!-- Generator: Adobe Illustrator 15.1.0, SVG Export Plug-In . SVG Version: 6.00 Build 0)  -->
<!DOCTYPE svg PUBLIC "-//W3C//DTD SVG 1.1//EN" "http://www.w3.org/Graphics/SVG/1.1/DTD/svg11.dtd">
<svg version="1.1" id="Vrstva_1" xmlns="http://www.w3.org/2000/svg" xmlns:xlink="http://www.w3.org/1999/xlink" x="0px" y="0px"
	 width="13.714px" height="16px" viewBox="0 0 13.714 16" enable-background="new 0 0 13.714 16" xml:space="preserve">
<g>
	<path d="M13.714,4.857v10.285c0,0.474-0.385,0.857-0.856,0.857H0.857C0.383,16,0,15.616,0,15.143V0.857C0,0.384,0.383,0,0.857,0
		h7.999c0.474,0,1.137,0.276,1.466,0.607l2.785,2.785C13.436,3.724,13.714,4.384,13.714,4.857z M12.572,5.714H8.856
		C8.384,5.714,8,5.33,8,4.857V1.143H1.143v13.715h11.429V5.714z M9.142,4.571H12.5c-0.053-0.151-0.133-0.304-0.195-0.366
		L9.509,1.412C9.447,1.349,9.294,1.268,9.142,1.214V4.571z"/>
</g>
</svg>
