<?xml version="1.0" encoding="utf-8"?>
<!-- Generator: Adobe Illustrator 15.1.0, SVG Export Plug-In . SVG Version: 6.00 Build 0)  -->
<!DOCTYPE svg PUBLIC "-//W3C//DTD SVG 1.1//EN" "http://www.w3.org/Graphics/SVG/1.1/DTD/svg11.dtd">
<svg version="1.1" id="Vrstva_1" xmlns="http://www.w3.org/2000/svg" xmlns:xlink="http://www.w3.org/1999/xlink" x="0px" y="0px"
	 width="13.714px" height="16px" viewBox="0 0 13.714 16" enable-background="new 0 0 13.714 16" xml:space="preserve">
<g>
	<path d="M13.715,4.857v10.285c0,0.474-0.385,0.857-0.859,0.857H0.857C0.384,16,0,15.616,0,15.143V0.857C0,0.384,0.384,0,0.857,0
		h7.999c0.474,0,1.136,0.276,1.466,0.607l2.783,2.785C13.436,3.724,13.715,4.384,13.715,4.857z M12.573,5.714H8.856
		C8.384,5.714,8,5.33,8,4.857V1.143H1.142v13.715h11.431V5.714z M2.079,7.813h0.627l1.464,5.901h1.42l1.143-4.331
		C6.777,9.25,6.804,9.116,6.82,8.974C6.829,8.901,6.84,8.83,6.84,8.759h0.034l0.028,0.215c0.027,0.125,0.034,0.268,0.08,0.41
		l1.143,4.331h1.418l1.467-5.901h0.623V6.857H8.954v0.955H9.76l-0.885,3.912c-0.036,0.142-0.053,0.293-0.063,0.409l-0.019,0.188
		H8.76c0-0.054-0.018-0.125-0.027-0.188c-0.028-0.116-0.045-0.268-0.081-0.409L7.363,6.857H6.349l-1.286,4.867
		c-0.035,0.142-0.046,0.293-0.071,0.409l-0.037,0.188H4.92l-0.018-0.188c-0.009-0.116-0.028-0.268-0.063-0.409L3.954,7.813h0.804
		V6.857H2.079V7.813z M9.143,4.571H12.5c-0.055-0.151-0.133-0.304-0.195-0.366L9.51,1.412C9.448,1.349,9.293,1.268,9.143,1.214
		V4.571z"/>
</g>
</svg>
