<?xml version="1.0" encoding="utf-8"?>
<!-- Generator: Adobe Illustrator 15.1.0, SVG Export Plug-In . SVG Version: 6.00 Build 0)  -->
<!DOCTYPE svg PUBLIC "-//W3C//DTD SVG 1.1//EN" "http://www.w3.org/Graphics/SVG/1.1/DTD/svg11.dtd">
<svg version="1.1" id="Vrstva_1" xmlns="http://www.w3.org/2000/svg" xmlns:xlink="http://www.w3.org/1999/xlink" x="0px" y="0px"
	 width="13.714px" height="16px" viewBox="0 0 13.714 16" enable-background="new 0 0 13.714 16" xml:space="preserve">
<g>
	<path d="M13.714,4.857v10.285c0,0.472-0.384,0.858-0.857,0.858h-12C0.385,16,0,15.613,0,15.142V0.857C0,0.383,0.385,0,0.857,0h8
		c0.473,0,1.135,0.276,1.465,0.607l2.784,2.785C13.437,3.724,13.714,4.383,13.714,4.857z M12.572,5.713H8.857
		C8.383,5.713,8,5.33,8,4.857V1.142H1.144v13.715h11.428V5.713z M8.732,10.062C9.108,10.017,9.456,10,9.778,10
		c0.597,0,1.357,0.071,1.58,0.438c0.063,0.088,0.114,0.25,0.017,0.464c-0.008,0.008-0.017,0.027-0.027,0.036v0.009
		c-0.025,0.162-0.16,0.339-0.632,0.339c-0.573,0-1.438-0.258-2.188-0.651c-1.241,0.134-2.545,0.411-3.5,0.741
		c-0.919,1.573-1.625,2.341-2.162,2.341c-0.088,0-0.168-0.018-0.25-0.063l-0.213-0.108c-0.028-0.01-0.037-0.027-0.053-0.045
		c-0.046-0.045-0.081-0.143-0.055-0.322c0.09-0.41,0.571-1.098,1.679-1.678c0.071-0.045,0.159-0.018,0.205,0.054
		c0.009,0.009,0.017,0.026,0.017,0.035c0.278-0.455,0.599-1.035,0.957-1.759c0.401-0.803,0.714-1.588,0.929-2.338
		C5.795,6.517,5.707,5.517,5.866,4.929c0.063-0.224,0.196-0.358,0.375-0.358h0.187h0.009c0.135,0,0.241,0.045,0.312,0.134
		C6.857,4.83,6.883,5.026,6.832,5.313c-0.011,0.026-0.02,0.053-0.037,0.071c0.009,0.028,0.009,0.045,0.009,0.071
		c0,0.09,0,0.179,0,0.269C6.794,6.286,6.787,6.821,6.678,7.437c0.313,0.938,0.778,1.696,1.304,2.125
		C8.206,9.741,8.456,9.9,8.732,10.062z M4.063,11.821c-0.669,0.518-1.089,1.105-1.223,1.41C3.108,13.106,3.492,12.722,4.063,11.821z
		 M7.821,10.196c-0.088-0.071-0.177-0.134-0.259-0.205c-0.438-0.384-0.83-0.92-1.134-1.571C6.26,8.963,6.01,9.544,5.688,10.178
		c-0.134,0.25-0.268,0.5-0.401,0.741C6.073,10.607,6.946,10.357,7.821,10.196z M6.375,6.196C6.403,6.053,6.419,5.92,6.438,5.803
		C6.457,5.651,6.482,5.526,6.5,5.419c0.01-0.027,0.019-0.045,0.037-0.071c-0.009-0.01-0.009-0.028-0.018-0.045
		C6.51,5.142,6.457,5.044,6.403,4.982c0,0.018-0.009,0.026-0.009,0.035C6.303,5.267,6.303,5.696,6.375,6.196z M9.143,4.571H12.5
		c-0.054-0.151-0.133-0.304-0.195-0.366L9.51,1.411C9.448,1.349,9.295,1.267,9.143,1.213V4.571z M9.805,10.562
		c0.438,0.16,0.837,0.25,1.104,0.25c0.082,0,0.125,0,0.163-0.008c0-0.009-0.011-0.019-0.019-0.027
		C11.01,10.732,10.778,10.562,9.805,10.562z"/>
</g>
</svg>
