<?xml version="1.0" encoding="utf-8"?>
<!-- Generator: Adobe Illustrator 15.1.0, SVG Export Plug-In . SVG Version: 6.00 Build 0)  -->
<!DOCTYPE svg PUBLIC "-//W3C//DTD SVG 1.1//EN" "http://www.w3.org/Graphics/SVG/1.1/DTD/svg11.dtd">
<svg version="1.1" id="Vrstva_1" xmlns="http://www.w3.org/2000/svg" xmlns:xlink="http://www.w3.org/1999/xlink" x="0px" y="0px"
	 width="13.714px" height="16px" viewBox="0 0 13.714 16" enable-background="new 0 0 13.714 16" xml:space="preserve">
<g>
	<path d="M13.715,4.857v10.285c0,0.474-0.385,0.857-0.859,0.857H0.857C0.384,16,0,15.616,0,15.143V0.857C0,0.384,0.384,0,0.857,0
		h8.001c0.472,0,1.134,0.276,1.464,0.607l2.785,2.785C13.436,3.724,13.715,4.384,13.715,4.857z M12.573,5.714H8.858
		C8.385,5.714,8,5.33,8,4.857V1.143H1.144v13.715h11.429V5.714z M3.715,13.714h2.919v-0.946h-0.83v-1.491h1.224
		c0.381,0,0.733-0.018,1.052-0.134c0.805-0.276,1.305-1.106,1.305-2.08c0-0.975-0.483-1.724-1.226-2.037
		C7.822,6.893,7.409,6.857,7,6.857H3.715v0.955h0.821v4.955H3.715V13.714z M5.804,10.268V7.875h1.071
		c0.313,0,0.555,0.054,0.743,0.162c0.32,0.187,0.5,0.552,0.5,1.026c0,0.5-0.18,0.883-0.555,1.071
		c-0.188,0.09-0.421,0.134-0.696,0.134H5.804z M9.143,4.571H12.5c-0.053-0.151-0.133-0.304-0.195-0.366L9.51,1.412
		C9.448,1.349,9.295,1.268,9.143,1.214V4.571z"/>
</g>
</svg>
