<?xml version="1.0" encoding="utf-8"?>
<!-- Generator: Adobe Illustrator 15.1.0, SVG Export Plug-In . SVG Version: 6.00 Build 0)  -->
<!DOCTYPE svg PUBLIC "-//W3C//DTD SVG 1.1//EN" "http://www.w3.org/Graphics/SVG/1.1/DTD/svg11.dtd">
<svg version="1.1" id="Vrstva_1" xmlns="http://www.w3.org/2000/svg" xmlns:xlink="http://www.w3.org/1999/xlink" x="0px" y="0px"
	 width="13.714px" height="16px" viewBox="0 0 13.714 16" enable-background="new 0 0 13.714 16" xml:space="preserve">
<g>
	<path d="M13.714,4.857v10.286c0,0.474-0.384,0.857-0.857,0.857h-12C0.384,16,0,15.616,0,15.143V0.857C0,0.385,0.384,0,0.857,0h8
		c0.474,0,1.134,0.277,1.465,0.607l2.785,2.786C13.437,3.723,13.714,4.385,13.714,4.857z M12.571,5.714H8.857
		C8.383,5.714,8,5.331,8,4.857V1.143H1.143v13.714h11.428V5.714z M3.83,13.714h2.509v-0.945h-0.67l0.92-1.438
		c0.107-0.17,0.161-0.304,0.188-0.304h0.017c0.009,0.036,0.027,0.063,0.045,0.089c0.036,0.072,0.089,0.126,0.152,0.215l0.955,1.438
		H7.268v0.945h2.598v-0.945H9.258l-1.714-2.438l1.741-2.518h0.599V6.857H7.393v0.956h0.661l-0.92,1.42
		C7.027,9.401,6.946,9.537,6.946,9.527H6.928C6.92,9.492,6.902,9.464,6.884,9.438C6.848,9.375,6.803,9.313,6.732,9.233l-0.947-1.42
		h0.679V6.857H3.875v0.956h0.607l1.687,2.429l-1.732,2.527H3.83V13.714z M9.143,4.571H12.5c-0.054-0.152-0.135-0.304-0.197-0.366
		L9.508,1.411C9.447,1.349,9.294,1.268,9.143,1.215V4.571z"/>
</g>
</svg>
