<?xml version="1.0" encoding="utf-8"?>
<!-- Generator: Adobe Illustrator 15.1.0, SVG Export Plug-In . SVG Version: 6.00 Build 0)  -->
<!DOCTYPE svg PUBLIC "-//W3C//DTD SVG 1.1//EN" "http://www.w3.org/Graphics/SVG/1.1/DTD/svg11.dtd">
<svg version="1.1" id="Vrstva_1" xmlns="http://www.w3.org/2000/svg" xmlns:xlink="http://www.w3.org/1999/xlink" x="0px" y="0px"
	 width="13.714px" height="16px" viewBox="0 0 13.714 16" enable-background="new 0 0 13.714 16" xml:space="preserve">
<g>
	<path d="M13.714,4.857v10.285c0,0.474-0.385,0.857-0.856,0.857H0.857C0.383,16,0,15.616,0,15.143V0.857C0,0.384,0.383,0,0.857,0
		h7.999c0.474,0,1.137,0.276,1.466,0.607l2.785,2.785C13.436,3.724,13.714,4.384,13.714,4.857z M12.572,5.714H8.856
		C8.384,5.714,8,5.33,8,4.857V1.143H1.143v13.715h11.429V5.714z M8,8v3.429c0,0.625-0.518,1.143-1.143,1.143H3.428
		c-0.625,0-1.143-0.518-1.143-1.143V8c0-0.625,0.518-1.143,1.143-1.143h3.429C7.482,6.857,8,7.375,8,8z M11.429,7.143v5.144
		c0,0.114-0.072,0.223-0.18,0.269c-0.035,0.008-0.07,0.017-0.108,0.017c-0.068,0-0.148-0.026-0.204-0.079l-2.365-2.376V9.313
		l2.365-2.375c0.056-0.053,0.136-0.08,0.204-0.08c0.038,0,0.073,0.009,0.108,0.018C11.357,6.92,11.429,7.026,11.429,7.143z
		 M9.142,4.571H12.5c-0.053-0.151-0.133-0.304-0.195-0.366L9.509,1.412C9.447,1.349,9.294,1.268,9.142,1.214V4.571z"/>
</g>
</svg>
