<svg xmlns="http://www.w3.org/2000/svg" width="32" height="32" viewBox="0 0 32 32"><path d="M27.5 25.3c-0.4 0.8-1.3 1.4-2.1 1.8-1 0.5-2 0.9-3.2 0.9-1.6 0-3-0.6-4.5-1.2-1-0.4-2-0.8-3-1.4-2.9-1.8-6.4-5.3-8.2-8.2-0.6-0.9-1-1.9-1.4-3-0.5-1.4-1.2-2.9-1.2-4.5 0-1.1 0.3-2.2 0.9-3.2 0.4-0.8 1-1.7 1.8-2.1C7.2 4.3 8.4 4 9 4c0.1 0 0.2 0 0.4 0 0.4 0.1 0.7 1 0.9 1.3 0.5 1 1.1 2 1.6 2.9 0.3 0.4 0.8 1 0.8 1.5 0 1-3.1 2.5-3.1 3.5 0 0.5 0.4 1.1 0.7 1.5 1.7 3.1 3.9 5.2 7 7 0.4 0.2 1 0.7 1.5 0.7 0.9 0 2.4-3.1 3.5-3.1 0.5 0 1.1 0.5 1.5 0.8 1 0.6 1.9 1.1 2.9 1.6 0.3 0.2 1.2 0.5 1.3 0.9 0.1 0.1 0.1 0.2 0.1 0.4C28 23.6 27.7 24.8 27.5 25.3z" fill="#b28a00"/></svg>