<svg xmlns="http://www.w3.org/2000/svg" width="32" height="32" viewBox="0 0 32 32"><path d="M28.9 23.9c0 1.3-1 2.3-2.3 2.3H5.4c-1.3 0-2.3-1-2.3-2.3V8.2c0-1.3 1-2.3 2.3-2.3h21.2c1.3 0 2.3 1 2.3 2.3V23.9zM26.6 7.7H5.4c-0.2 0-0.5 0.2-0.5 0.5 0 1.6 0.8 3.1 2.1 4.1 1.9 1.5 3.9 3 5.8 4.6 0.8 0.6 2.2 1.9 3.2 1.9h0 0c1 0 2.4-1.3 3.2-1.9 1.9-1.5 3.8-3.1 5.8-4.6 0.9-0.7 2.1-2.3 2.1-3.6C27.1 8.3 27.2 7.7 26.6 7.7zM27.1 12.8c-0.3 0.3-0.6 0.7-1 1-2.1 1.6-4.1 3.2-6.2 4.9-1.1 0.9-2.4 2-3.9 2h0 0c-1.5 0-2.8-1.1-3.9-2-2-1.7-4.1-3.3-6.1-4.9-0.4-0.3-0.7-0.6-1-0.9v11.1c0 0.2 0.2 0.5 0.5 0.5h21.2c0.3 0 0.5-0.2 0.5-0.5V12.8z" fill="#b28a00"/></svg>