<svg xmlns="http://www.w3.org/2000/svg" width="14" height="16" viewBox="0 0 13.7 16"><path d="M13.7 4.9v10.3c0 0.5-0.4 0.9-0.9 0.9H0.9C0.4 16 0 15.6 0 15.1V0.9C0 0.4 0.4 0 0.9 0h8c0.5 0 1.1 0.3 1.5 0.6l2.8 2.8C13.4 3.7 13.7 4.4 13.7 4.9zM12.6 5.7H8.9C8.4 5.7 8 5.3 8 4.9V1.1H6.9v1.1H5.7V1.1H1.1v13.7h11.4V5.7zM7.9 11.5C8 11.7 8 11.8 8 12c0 1-1 1.7-2.3 1.7 -1.3 0-2.3-0.7-2.3-1.7 0-0.2 0-0.3 0.1-0.5 0 0 0.2-0.6 1.1-3.5V6.9h1.1V8h0.7C6.7 8 6.9 8.2 7 8.4 7.7 11 7.9 11.5 7.9 11.5zM5.7 2.3H4.6v1.1h1.1V2.3zM5.7 4.6H4.6v1.1h1.1V4.6zM6.9 12c0-0.3-0.5-0.6-1.1-0.6 -0.6 0-1.1 0.3-1.1 0.6s0.5 0.6 1.1 0.6C6.3 12.6 6.9 12.3 6.9 12zM6.9 3.4H5.7v1.1h1.1V3.4zM6.9 5.7H5.7v1.1h1.1V5.7zM9.1 4.6H12.5c-0.1-0.2-0.1-0.3-0.2-0.4L9.5 1.4C9.4 1.3 9.3 1.3 9.1 1.2V4.6z"/></svg>