<svg xmlns="http://www.w3.org/2000/svg" width="14" height="16" viewBox="0 0 13.7 16"><path d="M13.7 4.9v10.3c0 0.5-0.4 0.9-0.9 0.9H0.9C0.4 16 0 15.6 0 15.1V0.9C0 0.4 0.4 0 0.9 0h8c0.5 0 1.1 0.3 1.5 0.6l2.8 2.8C13.4 3.7 13.7 4.4 13.7 4.9zM12.6 5.7H8.9C8.4 5.7 8 5.3 8 4.9V1.1H1.1v13.7h11.4V5.7zM5.7 7.9v4.9c0 0.1-0.1 0.2-0.2 0.3C5.5 13 5.5 13 5.4 13c-0.1 0-0.1 0-0.2-0.1l-1.5-1.5h-1.2c-0.2 0-0.3-0.1-0.3-0.3V9.4c0-0.2 0.1-0.3 0.3-0.3h1.2l1.5-1.5c0.1-0.1 0.2-0.1 0.3-0.1C5.6 7.6 5.7 7.7 5.7 7.9zM7.8 12.2c0.5-0.5 0.8-1.2 0.8-2 0-0.7-0.3-1.4-0.8-2 -0.2-0.2-0.6-0.2-0.8 0 -0.2 0.2-0.2 0.6 0 0.8 0.3 0.3 0.5 0.7 0.5 1.2 0 0.4-0.2 0.8-0.5 1.2 -0.2 0.2-0.2 0.6 0 0.8 0.1 0.1 0.3 0.2 0.4 0.2C7.5 12.4 7.7 12.4 7.8 12.2zM9.7 13.5c0.7-0.9 1.2-2.1 1.2-3.2 0-1.2-0.4-2.3-1.1-3.2 -0.2-0.2-0.6-0.3-0.8-0.1 -0.2 0.2-0.3 0.6-0.1 0.8 0.6 0.7 0.9 1.6 0.9 2.5 0 0.9-0.3 1.8-0.9 2.5 -0.2 0.3-0.2 0.6 0.1 0.8 0.1 0.1 0.2 0.1 0.4 0.1C9.4 13.7 9.6 13.7 9.7 13.5zM9.1 4.6H12.5c-0.1-0.2-0.1-0.3-0.2-0.4L9.5 1.4C9.4 1.3 9.3 1.3 9.1 1.2V4.6z"/></svg>