<svg xmlns="http://www.w3.org/2000/svg" width="14" height="16" viewBox="0 0 13.7 16"><path d="M13.7 4.9v10.3c0 0.5-0.4 0.9-0.9 0.9H0.9C0.4 16 0 15.6 0 15.1V0.9C0 0.4 0.4 0 0.9 0h8c0.5 0 1.1 0.3 1.5 0.6l2.8 2.8C13.4 3.7 13.7 4.4 13.7 4.9zM12.6 5.7H8.9C8.4 5.7 8 5.3 8 4.9V1.1H1.1v13.7h11.4V5.7zM4.7 6.8l0.5 0.3C5.3 7.2 5.3 7.4 5.2 7.5L3.6 9.7l1.6 2.2c0.1 0.1 0.1 0.3-0.1 0.4l-0.5 0.3c-0.1 0.1-0.3 0.1-0.4-0.1L2.3 9.9c-0.1-0.1-0.1-0.2 0-0.3l2-2.7C4.4 6.7 4.6 6.7 4.7 6.8zM5.7 13.3l1.2-7.4c0-0.2 0.2-0.3 0.3-0.2l0.6 0.1c0.2 0 0.3 0.2 0.2 0.3l-1.2 7.4c0 0.2-0.2 0.3-0.3 0.2L5.9 13.7C5.7 13.6 5.7 13.5 5.7 13.3zM11.4 9.9L9.4 12.6c-0.1 0.1-0.3 0.2-0.4 0.1l-0.5-0.3c-0.1-0.1-0.2-0.3-0.1-0.4l1.6-2.2L8.5 7.5C8.4 7.4 8.4 7.2 8.6 7.1l0.5-0.3C9.2 6.7 9.3 6.7 9.4 6.9l2 2.7C11.5 9.6 11.5 9.8 11.4 9.9zM9.1 4.6H12.5c-0.1-0.2-0.1-0.3-0.2-0.4L9.5 1.4C9.4 1.3 9.3 1.3 9.1 1.2V4.6z"/></svg>