<svg xmlns="http://www.w3.org/2000/svg" width="14" height="16" viewBox="0 0 13.7 16"><path d="M13.7 4.9v10.3c0 0.5-0.4 0.9-0.9 0.9H0.9C0.4 16 0 15.6 0 15.1V0.9C0 0.4 0.4 0 0.9 0h8c0.5 0 1.1 0.3 1.5 0.6l2.8 2.8C13.4 3.7 13.7 4.4 13.7 4.9zM12.6 5.7H8.9C8.4 5.7 8 5.3 8 4.9V1.1H1.1v13.7h11.4V5.7zM2.1 7.8h0.6l1.5 5.9h1.4l1.1-4.3C6.8 9.3 6.8 9.1 6.8 9 6.8 8.9 6.8 8.8 6.8 8.8h0l0 0.2c0 0.1 0 0.3 0.1 0.4l1.1 4.3h1.4l1.5-5.9h0.6V6.9H9v1H9.8l-0.9 3.9c0 0.1-0.1 0.3-0.1 0.4l0 0.2H8.8c0-0.1 0-0.1 0-0.2 0-0.1 0-0.3-0.1-0.4L7.4 6.9H6.3l-1.3 4.9c0 0.1 0 0.3-0.1 0.4l0 0.2H4.9l0-0.2c0-0.1 0-0.3-0.1-0.4L4 7.8h0.8V6.9H2.1V7.8zM9.1 4.6H12.5c-0.1-0.2-0.1-0.3-0.2-0.4L9.5 1.4C9.4 1.3 9.3 1.3 9.1 1.2V4.6z"/></svg>