<svg xmlns="http://www.w3.org/2000/svg" width="14" height="16" viewBox="0 0 13.7 16"><path d="M13.7 4.9v10.3c0 0.5-0.4 0.9-0.9 0.9h-12C0.4 16 0 15.6 0 15.1V0.9C0 0.4 0.4 0 0.9 0h8c0.5 0 1.1 0.3 1.5 0.6l2.8 2.8C13.4 3.7 13.7 4.4 13.7 4.9zM12.6 5.7H8.9C8.4 5.7 8 5.3 8 4.9V1.1H1.1v13.7h11.4V5.7zM2.3 7.4c0-0.9 0.8-1.7 1.7-1.7s1.7 0.8 1.7 1.7c0 0.9-0.8 1.7-1.7 1.7S2.3 8.4 2.3 7.4zM11.4 13.7H2.3V12L4 10.3l1.1 1.1L8.6 8l2.9 2.9V13.7zM9.1 4.6H12.5c-0.1-0.2-0.1-0.3-0.2-0.4L9.5 1.4C9.4 1.3 9.3 1.3 9.1 1.2V4.6z"/></svg>