<svg xmlns="http://www.w3.org/2000/svg" width="14" height="16" viewBox="0 0 13.7 16"><path d="M13.7 4.9v10.3c0 0.5-0.4 0.9-0.9 0.9H0.9C0.4 16 0 15.6 0 15.1V0.9C0 0.4 0.4 0 0.9 0h8c0.5 0 1.1 0.3 1.5 0.6l2.8 2.8C13.4 3.7 13.7 4.4 13.7 4.9zM12.6 5.7H8.9C8.4 5.7 8 5.3 8 4.9V1.1H1.1v13.7h11.4V5.7zM3.7 13.7h2.9v-0.9h-0.8v-1.5h1.2c0.4 0 0.7 0 1.1-0.1 0.8-0.3 1.3-1.1 1.3-2.1 0-1-0.5-1.7-1.2-2C7.8 6.9 7.4 6.9 7 6.9H3.7v1h0.8v5H3.7V13.7zM5.8 10.3V7.9h1.1c0.3 0 0.6 0.1 0.7 0.2 0.3 0.2 0.5 0.6 0.5 1 0 0.5-0.2 0.9-0.6 1.1 -0.2 0.1-0.4 0.1-0.7 0.1H5.8zM9.1 4.6H12.5c-0.1-0.2-0.1-0.3-0.2-0.4L9.5 1.4C9.4 1.3 9.3 1.3 9.1 1.2V4.6z"/></svg>