<svg xmlns="http://www.w3.org/2000/svg" width="14" height="16" viewBox="0 0 13.7 16"><path d="M13.7 4.9v10.3c0 0.5-0.4 0.9-0.9 0.9h-12C0.4 16 0 15.6 0 15.1V0.9C0 0.4 0.4 0 0.9 0h8c0.5 0 1.1 0.3 1.5 0.6l2.8 2.8C13.4 3.7 13.7 4.4 13.7 4.9zM12.6 5.7H8.9C8.4 5.7 8 5.3 8 4.9V1.1H1.1v13.7h11.4V5.7zM3.8 13.7h2.5v-0.9h-0.7l0.9-1.4c0.1-0.2 0.2-0.3 0.2-0.3h0c0 0 0 0.1 0 0.1 0 0.1 0.1 0.1 0.2 0.2l1 1.4H7.3v0.9h2.6v-0.9H9.3l-1.7-2.4 1.7-2.5h0.6V6.9H7.4v1h0.7l-0.9 1.4C7 9.4 6.9 9.5 6.9 9.5H6.9C6.9 9.5 6.9 9.5 6.9 9.4 6.8 9.4 6.8 9.3 6.7 9.2l-0.9-1.4h0.7V6.9H3.9v1h0.6l1.7 2.4 -1.7 2.5H3.8V13.7zM9.1 4.6H12.5c-0.1-0.2-0.1-0.3-0.2-0.4L9.5 1.4C9.4 1.3 9.3 1.3 9.1 1.2V4.6z"/></svg>