<svg xmlns="http://www.w3.org/2000/svg" width="14" height="16" viewBox="0 0 13.7 16"><path d="M13.7 4.9v10.3c0 0.5-0.4 0.9-0.9 0.9H0.9C0.4 16 0 15.6 0 15.1V0.9C0 0.4 0.4 0 0.9 0h8c0.5 0 1.1 0.3 1.5 0.6l2.8 2.8C13.4 3.7 13.7 4.4 13.7 4.9zM12.6 5.7H8.9C8.4 5.7 8 5.3 8 4.9V1.1H1.1v13.7h11.4V5.7zM8 8v3.4c0 0.6-0.5 1.1-1.1 1.1H3.4c-0.6 0-1.1-0.5-1.1-1.1V8c0-0.6 0.5-1.1 1.1-1.1h3.4C7.5 6.9 8 7.4 8 8zM11.4 7.1v5.1c0 0.1-0.1 0.2-0.2 0.3 0 0-0.1 0-0.1 0 -0.1 0-0.1 0-0.2-0.1l-2.4-2.4V9.3l2.4-2.4c0.1-0.1 0.1-0.1 0.2-0.1 0 0 0.1 0 0.1 0C11.4 6.9 11.4 7 11.4 7.1zM9.1 4.6H12.5c-0.1-0.2-0.1-0.3-0.2-0.4L9.5 1.4C9.4 1.3 9.3 1.3 9.1 1.2V4.6z"/></svg>