<?xml version="1.0" encoding="utf-8"?><!DOCTYPE svg PUBLIC "-//W3C//DTD SVG 1.1//EN" "http://www.w3.org/Graphics/SVG/1.1/DTD/svg11.dtd"><svg version="1.1" xmlns="http://www.w3.org/2000/svg" xmlns:xlink="http://www.w3.org/1999/xlink" x="0px" y="0px" width="32px" height="32px" viewBox="0 0 32 32" enable-background="new 0 0 32 32" xml:space="preserve"><g><path d="M27.745,13.603l-6.856,6.856c-0.16,0.161-0.375,0.255-0.603,0.255c-0.469,0-0.857-0.388-0.857-0.856v-3.429h-3 c-5.772,0-9.563,1.112-9.563,7.499c0,0.55,0.026,1.099,0.066,1.648C6.946,25.79,7,26.031,7,26.245c0,0.255-0.161,0.469-0.429,0.469 c-0.188,0-0.28-0.094-0.374-0.228c-0.202-0.281-0.349-0.709-0.496-1.018C4.938,23.755,4,21.304,4,19.429 c0-1.501,0.147-3.04,0.709-4.46c1.862-4.62,7.326-5.397,11.72-5.397h3V6.144c0-0.469,0.389-0.857,0.857-0.857 c0.228,0,0.442,0.094,0.603,0.254l6.856,6.857C27.906,12.558,28,12.772,28,13S27.906,13.442,27.745,13.603z"/></g></svg>
