<?xml version="1.0" encoding="utf-8"?><!DOCTYPE svg PUBLIC "-//W3C//DTD SVG 1.1//EN" "http://www.w3.org/Graphics/SVG/1.1/DTD/svg11.dtd"><svg version="1.1" xmlns="http://www.w3.org/2000/svg" xmlns:xlink="http://www.w3.org/1999/xlink" x="0px" y="0px" width="32px" height="32px" viewBox="0 0 32 32" enable-background="new 0 0 32 32" xml:space="preserve"><path d="M28.924,23.852c0,1.268-1.047,2.303-2.314,2.303H5.384c-1.267,0-2.308-1.035-2.308-2.303V8.154 c0-1.268,1.041-2.309,2.308-2.309h21.226c1.268,0,2.314,1.041,2.314,2.309V23.852z M26.609,7.694H5.384 c-0.246,0-0.459,0.214-0.459,0.46c0,1.643,0.821,3.071,2.115,4.099c1.938,1.514,3.866,3.041,5.786,4.571 c0.769,0.618,2.152,1.946,3.161,1.946h0.008h0.019c1.008,0,2.393-1.328,3.161-1.946c1.92-1.53,3.848-3.058,5.787-4.571 c0.938-0.737,2.115-2.34,2.115-3.563C27.076,8.329,27.166,7.694,26.609,7.694z M27.076,12.771c-0.305,0.343-0.635,0.659-0.99,0.95 c-2.063,1.585-4.145,3.201-6.154,4.879c-1.08,0.904-2.418,2.019-3.918,2.019h-0.019h-0.008c-1.5,0-2.838-1.114-3.931-2.019 c-1.998-1.678-4.079-3.294-6.142-4.879c-0.356-0.291-0.692-0.607-0.99-0.95v11.081c0,0.24,0.214,0.454,0.459,0.454h21.226 c0.252,0,0.467-0.214,0.467-0.454V12.771z"/></svg>