<?xml version="1.0" encoding="utf-8"?><!DOCTYPE svg PUBLIC "-//W3C//DTD SVG 1.1//EN" "http://www.w3.org/Graphics/SVG/1.1/DTD/svg11.dtd"><svg version="1.1" xmlns="http://www.w3.org/2000/svg" xmlns:xlink="http://www.w3.org/1999/xlink" x="0px" y="0px" width="32px" height="32px" viewBox="0 0 32 32" enable-background="new 0 0 32 32" xml:space="preserve"><path d="M27.471,25.324c-0.358,0.834-1.319,1.369-2.075,1.805c-1.017,0.548-2.027,0.863-3.178,0.863c-1.58,0-3.02-0.643-4.459-1.169 c-1.033-0.38-2.049-0.834-2.988-1.416c-2.887-1.793-6.377-5.283-8.172-8.18c-0.582-0.938-1.047-1.944-1.415-2.984 c-0.526-1.443-1.183-2.88-1.183-4.459c0-1.146,0.328-2.17,0.878-3.171c0.42-0.763,0.971-1.72,1.802-2.078 C7.239,4.277,8.43,4.008,9.041,4.008c0.129,0,0.245,0,0.36,0.047c0.358,0.121,0.741,0.954,0.909,1.298 c0.549,0.969,1.076,1.954,1.635,2.911c0.273,0.443,0.794,0.993,0.794,1.521c0,1.038-3.093,2.549-3.093,3.474 c0,0.459,0.435,1.055,0.664,1.466c1.719,3.101,3.872,5.243,6.974,6.969c0.412,0.233,1,0.665,1.464,0.665 c0.918,0,2.437-3.086,3.471-3.086c0.527,0,1.077,0.515,1.519,0.78c0.962,0.567,1.941,1.097,2.911,1.643 c0.337,0.168,1.184,0.538,1.299,0.897c0.054,0.117,0.054,0.245,0.054,0.36C27.998,23.563,27.723,24.757,27.471,25.324z"/></svg>
