<?xml version="1.0" encoding="utf-8"?>
<!DOCTYPE svg PUBLIC "-//W3C//DTD SVG 1.1//EN" "http://www.w3.org/Graphics/SVG/1.1/DTD/svg11.dtd">
<svg version="1.1" xmlns="http://www.w3.org/2000/svg" xmlns:xlink="http://www.w3.org/1999/xlink" x="0px" y="0px" width="174.979px" height="63.992px" viewBox="0 0 174.979 63.992" enable-background="new 0 0 174.979 63.992" xml:space="preserve">
<g id="close-def">
<rect x="32" fill="#A41F18" width="32" height="32"/>
<path fill="#FFFFFF" d="M53.618,20.27l-1.348,1.35c-0.182,0.18-0.43,0.276-0.679,0.276c-0.244,0-0.493-0.097-0.674-0.276 L47.997,18.7l-2.916,2.919c-0.18,0.18-0.429,0.276-0.675,0.276c-0.249,0-0.498-0.097-0.677-0.276l-1.348-1.35 c-0.179-0.18-0.279-0.426-0.279-0.675c0-0.248,0.1-0.497,0.279-0.676l2.918-2.918l-2.918-2.92 c-0.179-0.179-0.279-0.428-0.279-0.674c0-0.25,0.1-0.498,0.279-0.678l1.348-1.35c0.179-0.18,0.428-0.276,0.677-0.276 c0.246,0,0.496,0.097,0.675,0.276l2.916,2.919l2.921-2.919c0.181-0.18,0.43-0.276,0.674-0.276c0.249,0,0.497,0.097,0.679,0.276 l1.348,1.35c0.183,0.18,0.279,0.428,0.279,0.678c0,0.246-0.097,0.495-0.279,0.674l-2.919,2.92l2.919,2.918 c0.183,0.179,0.279,0.428,0.279,0.676C53.897,19.844,53.801,20.09,53.618,20.27z"/>
</g>
<g id="next-def">
<rect x="64" fill="#A41F18" width="32" height="32"/>
<path fill="#FFFFFF" d="M77.585,23.813c-0.25,0.249-0.645,0.249-0.894,0l-1.646-1.647c-0.249-0.25-0.249-0.645,0-0.894L80.315,16 l-5.27-5.271c-0.249-0.25-0.249-0.645,0-0.894l1.646-1.647c0.249-0.25,0.644-0.25,0.894,0l7.368,7.366 c0.25,0.249,0.25,0.644,0,0.894L77.585,23.813z"/>
</g>
<g id="prew-def">
<rect x="96" fill="#A41F18" width="32" height="32"/>
<path fill="#FFFFFF" d="M111.685,16l5.27,5.272c0.25,0.249,0.25,0.644,0,0.894l-1.645,1.647c-0.249,0.249-0.645,0.249-0.894,0 l-7.369-7.366c-0.249-0.25-0.249-0.645,0-0.894l7.369-7.366c0.249-0.25,0.645-0.25,0.894,0l1.645,1.647 c0.25,0.249,0.25,0.644,0,0.894L111.685,16z"/>
</g>
<g id="close-active">
<rect x="32" y="31.992" fill="#FFFFFF" width="32" height="32"/>
<path fill="#A41F18" d="M53.618,52.262l-1.348,1.35c-0.182,0.18-0.43,0.275-0.679,0.275c-0.244,0-0.493-0.096-0.674-0.275 l-2.921-2.92l-2.916,2.92c-0.18,0.18-0.429,0.275-0.675,0.275c-0.249,0-0.498-0.096-0.677-0.275l-1.348-1.35 c-0.179-0.18-0.279-0.426-0.279-0.676c0-0.248,0.1-0.496,0.279-0.676l2.918-2.918l-2.918-2.92 c-0.179-0.178-0.279-0.428-0.279-0.674c0-0.25,0.1-0.498,0.279-0.678l1.348-1.35c0.179-0.18,0.428-0.275,0.677-0.275 c0.246,0,0.496,0.096,0.675,0.275l2.916,2.92l2.921-2.92c0.181-0.18,0.43-0.275,0.674-0.275c0.249,0,0.497,0.096,0.679,0.275 l1.348,1.35c0.183,0.18,0.279,0.428,0.279,0.678c0,0.246-0.097,0.496-0.279,0.674l-2.919,2.92l2.919,2.918 c0.183,0.18,0.279,0.428,0.279,0.676C53.897,51.836,53.801,52.082,53.618,52.262z"/>
</g>
<g id="next-active">
<rect x="64" y="31.992" fill="#FFFFFF" width="32" height="32"/>
<path fill="#A41F18" d="M77.585,55.805c-0.25,0.25-0.645,0.25-0.894,0l-1.646-1.646c-0.249-0.25-0.249-0.645,0-0.895l5.27-5.271 l-5.27-5.271c-0.249-0.25-0.249-0.645,0-0.895l1.646-1.646c0.249-0.25,0.644-0.25,0.894,0l7.368,7.365 c0.25,0.25,0.25,0.645,0,0.895L77.585,55.805z"/>
</g>
<g id="prew-active">
<rect x="96" y="31.992" fill="#FFFFFF" width="32" height="32"/>
<path fill="#A41F18" d="M111.685,47.992l5.27,5.271c0.25,0.25,0.25,0.645,0,0.895l-1.645,1.646c-0.249,0.25-0.645,0.25-0.894,0 l-7.369-7.365c-0.249-0.25-0.249-0.645,0-0.895l7.369-7.365c0.249-0.25,0.645-0.25,0.894,0l1.645,1.646 c0.25,0.25,0.25,0.645,0,0.895L111.685,47.992z"/>
</g>
</svg>